<svg width="15" height="14" viewBox="0 0 15 14" fill="none" xmlns="http://www.w3.org/2000/svg">
<path d="M9.7648 3.9267C9.91654 4.13194 10 4.39162 10 4.6555C10 5.29634 9.52959 5.8199 8.94537 5.8199C8.72914 5.8199 8.52428 5.74869 8.34977 5.61466C8.12216 5.86178 7.81487 6 7.49621 6C7.17754 6 6.87026 5.86178 6.64643 5.61466C6.47193 5.74869 6.26707 5.8199 6.05083 5.8199C5.63354 5.8199 5.25417 5.54764 5.08725 5.12461C5.03035 4.97801 5 4.81885 5 4.6555C5 4.59267 5.00379 4.52984 5.01517 4.46702C5.06829 4.10681 5.27314 3.79686 5.56146 3.62932C5.56146 3.60838 5.56146 3.59162 5.56146 3.57068C5.56146 3.08901 5.91806 2.69529 6.35433 2.69529C6.39226 2.69529 6.4302 2.69529 6.47193 2.70366C6.6654 2.27644 7.06753 2 7.50379 2C7.66692 2 7.82246 2.0377 7.97041 2.1089C8.217 2.23037 8.41426 2.43979 8.53566 2.70366C8.5736 2.69529 8.61153 2.69529 8.64947 2.69529C9.08574 2.69529 9.44234 3.08901 9.44234 3.57068C9.44234 3.59162 9.44234 3.60838 9.44234 3.62932C9.56753 3.70471 9.68134 3.80524 9.76859 3.9267H9.7648Z" fill="#99D7F3"/>
<path d="M1 13C1.46774 10.5695 3.26697 8.60634 5.60878 7.91145C4.51427 7.26331 3.7846 6.07297 3.7846 4.71436C3.7846 2.66087 5.44663 1 7.50156 1C9.55649 1 11.2185 2.66087 11.2185 4.71436C11.2185 6.07297 10.4857 7.26331 9.39434 7.91145C10.4639 8.22618 11.4118 8.80888 12.1821 9.57544C13.0988 10.4916 13.7474 11.6726 14 13" stroke="#CCCCCC" stroke-linecap="round" stroke-linejoin="round"/>
</svg>
