<svg width="34" height="25" viewBox="0 0 34 25" fill="none" xmlns="http://www.w3.org/2000/svg">
<path d="M33.4237 10.2663C33.4237 10.3515 33.4237 10.4367 33.4237 10.5141C33.4237 10.5838 33.4237 10.6457 33.4237 10.7077C33.354 12.7284 32.7578 14.6717 31.6971 16.3131L31.5423 16.5841C28.4376 21.8489 22.8941 25 16.7312 25C10.5683 25 5.00155 21.8489 1.89687 16.5841L1.74203 16.3131C0.681325 14.6717 0.0851657 12.7284 0 10.7077C0 10.6457 0 10.5838 0 10.5218V10.2663C0 4.61443 4.08021 0.00774234 9.09724 0.00774234C11.8613 0.00774234 14.4472 1.40136 16.1892 3.82471C16.3054 3.9873 16.4989 4.08795 16.708 4.08795C16.917 4.08795 17.1106 3.9873 17.2344 3.82471C18.1016 2.60917 19.1855 1.65686 20.3933 0.998761C21.6011 0.356147 22.9328 0 24.3187 0C29.3357 0 33.4237 4.60669 33.4237 10.2586V10.2663Z" fill="#F8B7D0"/>
</svg>
