<svg width="15" height="15" viewBox="0 0 15 15" fill="none" xmlns="http://www.w3.org/2000/svg">
<g clip-path="url(#clip0_102_149)">
<path d="M10.8378 6.66193C10.8066 6.48803 10.7576 6.32304 10.6908 6.17144C10.6328 6.02429 10.5571 5.89052 10.4679 5.76567L9.17561 7.05878H7.94566V5.81918L8.75225 5.01211C8.574 5.04332 8.4002 5.10128 8.24423 5.18601C7.99913 5.31532 7.78077 5.50705 7.60698 5.7523C7.5847 5.78797 7.54459 5.8058 7.50003 5.8058C7.45992 5.8058 7.41981 5.78797 7.39753 5.7523C7.30395 5.62299 7.20145 5.51151 7.08559 5.41341C6.76919 5.13696 6.37703 4.98535 5.96705 4.98535C4.95546 4.98535 4.1355 5.91282 4.1355 7.04986V7.13904C4.15332 7.54926 4.27364 7.94165 4.48309 8.27162C4.49646 8.28945 4.50537 8.30729 4.51874 8.32513C5.14263 9.38636 6.26117 10.0195 7.50003 10.0195C8.73888 10.0195 9.85742 9.38636 10.4858 8.32513C10.4947 8.30729 10.508 8.28945 10.517 8.27162C10.7309 7.94165 10.8512 7.54926 10.8646 7.13904C10.869 7.13012 10.869 7.11674 10.869 7.10337V7.04986C10.869 6.91609 10.8556 6.78678 10.8378 6.66193Z" fill="#F8B7D0"/>
<path d="M12.6248 15.0003H1.98752C0.891266 15.0003 0 14.1085 0 13.0116V2.37249C0 1.27558 0.891266 0.383789 1.98752 0.383789H8.58734C8.83244 0.383789 9.03298 0.584443 9.03298 0.829687C9.03298 1.07493 8.83244 1.27558 8.58734 1.27558H1.98752C1.38146 1.27558 0.891266 1.76607 0.891266 2.37249V13.0161C0.891266 13.6225 1.38146 14.113 1.98752 14.113H12.6248C13.2308 14.113 13.721 13.6225 13.721 13.0161V6.4257C13.721 6.18046 13.9216 5.97981 14.1667 5.97981C14.4118 5.97981 14.6123 6.18046 14.6123 6.4257V13.0161C14.6123 14.113 13.721 15.0048 12.6248 15.0048V15.0003Z" fill="#CBCBCB"/>
<path d="M14.1667 0.829206C13.6542 0.316423 12.8209 0.320882 12.3084 0.829206C12.3084 0.833665 12.3039 0.833665 12.3039 0.833665L7.5 5.63152V7.49984H9.35829L10.6907 6.17106L14.1667 2.70198V2.69306C14.4296 2.4389 14.5544 2.10001 14.5544 1.76559C14.5544 1.43117 14.4251 1.08783 14.1667 0.829206ZM13.8503 2.38539L10.4679 5.76529L9.17558 7.0584H7.94563V5.8188L8.75223 5.01173L12.6248 1.14579C12.9635 0.806911 13.5116 0.806911 13.8547 1.14579C14.0196 1.31078 14.1087 1.52927 14.1087 1.76559C14.1087 2.00192 14.0196 2.21595 13.8503 2.38539Z" fill="white"/>
<path d="M14.483 0.512511C13.7967 -0.169712 12.6782 -0.169712 11.9875 0.521429L7.08552 5.41293L7.05432 5.44414V7.95009H9.54541L10.8377 6.66144L14.4875 3.00954C14.8172 2.67957 15 2.23368 15 1.76548C15 1.29729 14.8172 0.846935 14.483 0.512511ZM13.8502 2.38528L10.4679 5.76519L9.17553 7.05829H7.94559V5.81869L8.75218 5.01162L12.6247 1.14569C12.9634 0.806804 13.5115 0.806804 13.8547 1.14569C14.0196 1.31067 14.1087 1.52916 14.1087 1.76548C14.1087 2.00181 14.0196 2.21584 13.8502 2.38528Z" fill="#CBCBCB"/>
</g>
<defs>
<clipPath id="clip0_102_149">
<rect width="15" height="15" fill="white"/>
</clipPath>
</defs>
</svg>
