<svg width="16" height="12" viewBox="0 0 16 12" fill="none" xmlns="http://www.w3.org/2000/svg">
<path d="M13.9697 5.32336C14.2405 5.4763 14.4879 5.66639 14.694 5.88595L14.8547 6.08973C15.2696 6.61574 15.5 7.28531 15.5 7.96649C15.5 9.63044 14.2013 10.9597 12.6252 10.9597C12.0389 10.9597 11.4854 10.7795 11.0114 10.4382L10.6633 10.1875L10.3626 10.4936C9.72676 11.1407 8.87135 11.5 7.98786 11.5C7.10365 11.5 6.25015 11.1404 5.62818 10.4966L5.32755 10.1854L4.97642 10.4382C4.50248 10.7795 3.94901 10.9597 3.36267 10.9597C2.23521 10.9597 1.19945 10.2699 0.740625 9.1812C0.58379 8.80193 0.5 8.38987 0.5 7.96649C0.5 7.79894 0.510867 7.64398 0.539479 7.4959L0.541134 7.48734L0.542488 7.47873C0.688824 6.54828 1.25263 5.75372 2.03586 5.32703L2.29666 5.18495V4.88796V4.88759V4.88722V4.88685V4.88649V4.88612V4.88575V4.88539V4.88502V4.88466V4.88429V4.88393V4.88356V4.8832V4.88283V4.88247V4.8821V4.88174V4.88138V4.88101V4.88065V4.88029V4.87993V4.87956V4.8792V4.87884V4.87848V4.87812V4.87776V4.8774V4.87704V4.87668V4.87632V4.87596V4.8756V4.87524V4.87488V4.87452V4.87417V4.87381V4.87345V4.87309V4.87274V4.87238V4.87202V4.87167V4.87131V4.87095V4.8706V4.87024V4.86989V4.86953V4.86918V4.86882V4.86847V4.86811V4.86776V4.86741V4.86705V4.8667V4.86635V4.86599V4.86564V4.86529V4.86494V4.86459V4.86423V4.86388V4.86353V4.86318V4.86283V4.86248V4.86213V4.86178V4.86143V4.86108V4.86073V4.86038V4.86003V4.85968V4.85933V4.85898V4.85863V4.85829V4.85794V4.85759V4.85724V4.8569V4.85655V4.8562V4.85585V4.85551V4.85516V4.85482V4.85447V4.85412V4.85378V4.85343V4.85309V4.85274V4.8524V4.85205V4.85171V4.85136V4.85102V4.85067V4.85033V4.84999V4.84964V4.8493V4.84895V4.84861V4.84827V4.84793V4.84758V4.84724V4.8469V4.84656V4.84621V4.84587V4.84553V4.84519V4.84485V4.84451V4.84416V4.84382V4.84348V4.84314V4.8428V4.84246V4.84212V4.84178V4.84144V4.8411V4.84076V4.84042V4.84008V4.83974V4.8394V4.83906V4.83872V4.83839V4.83805V4.83771V4.83737V4.83703V4.83669V4.83636V4.83602V4.83568V4.83534V4.835V4.83467V4.83433V4.83399V4.83366V4.83332V4.83298V4.83264V4.83231V4.83197V4.83163V4.8313V4.83096V4.83063V4.83029V4.82995V4.82962V4.82928V4.82895V4.82861V4.82828V4.82794V4.82761V4.82727V4.82694V4.8266V4.82627V4.82593V4.8256V4.82526V4.82493V4.82459V4.82426V4.82392V4.82359V4.82326V4.82292V4.82259V4.82225V4.82192V4.82159V4.82125V4.82092V4.82059V4.82025V4.81992V4.81959V4.81925V4.81892V4.81859V4.81825V4.81792V4.81759V4.81725V4.81692V4.81659V4.81626V4.81592V4.81559V4.81526V4.81493V4.81459V4.81426V4.81393V4.8136V4.81326V4.81293V4.8126V4.81227V4.81194V4.8116V4.81127V4.81094V4.81061V4.81028V4.80994V4.80961V4.80928V4.80895V4.80862V4.80829V4.80795V4.80762V4.80729V4.80696V4.80663V4.8063V4.80596V4.80563V4.8053V4.80497V4.80464V4.80431V4.80398V4.80364V4.80331V4.80298V4.80265V4.80232V4.80199V4.80166V4.80133V4.80099V4.80066V4.80033V4.8V4.79967V4.79934V4.79901V4.79867V4.79834V4.79801V4.79768V4.79735V4.79702V4.79669V4.79636V4.79602V4.79569V4.79536V4.79503V4.7947V4.79437V4.79404V4.7937V4.79337V4.79304V4.79271V4.79238V4.79205V4.79171V4.79138V4.79105V4.79072V4.79039V4.79006V4.78972V4.78939V4.78906V4.78873V4.7884V4.78806V4.78773V4.7874V4.78707V4.78674V4.7864V4.78607V4.78574V4.78541V4.78507V4.78474V4.78441V4.78408V4.78374V4.78341V4.78308V4.78275V4.78241V4.78208V4.78175V4.78141V4.78108V4.78075V4.78041V4.78008V4.77975V4.77941V4.77908V4.77875V4.77841V4.77808V4.77775V4.77741V4.77708V4.77674V4.77641V4.77608V4.77574V4.77541V4.77507V4.77474V4.7744V4.77407V4.77373V4.7734V4.77306V4.77273V4.77239V4.77206V4.77172V4.77139V4.77105V4.77072V4.77038V4.77005V4.76971V4.76937V4.76904V4.7687V4.76836V4.76803V4.76769V4.76735V4.76702V4.76668V4.76634V4.76601V4.76567V4.76533V4.765V4.76466V4.76432V4.76398V4.76364V4.76331V4.76297V4.76263V4.76229V4.76195V4.76161V4.76128V4.76094V4.7606V4.76026V4.75992V4.75958V4.75924V4.7589V4.75856V4.75822V4.75788V4.75754V4.7572V4.75686V4.75652V4.75618V4.75584V4.75549V4.75515V4.75481V4.75447V4.75413V4.75379V4.75344V4.7531V4.75276V4.75242V4.75207V4.75173V4.75139V4.75105V4.7507V4.75036V4.75001V4.74967V4.74933V4.74898V4.74864V4.74829V4.74795V4.7476V4.74726V4.74691V4.74657V4.74622V4.74588V4.74553V4.74518V4.74484V4.74449V4.74415V4.7438V4.74345V4.7431V4.74276V4.74241V4.74206V4.74171V4.74136V4.74102V4.74067V4.74032V4.73997V4.73962V4.73927V4.73892V4.73857V4.73822V4.73787V4.73752V4.73717V4.73682V4.73647V4.73612V4.73577V4.73541V4.73506V4.73471V4.73436V4.73401V4.73365V4.7333V4.73295V4.73259V4.73224V4.73189V4.73153V4.73118V4.73082V4.73047V4.73011V4.72976V4.7294V4.72905V4.72869V4.72833V4.72798V4.72762V4.72726V4.72691V4.72655V4.72619V4.72583V4.72548V4.72512V4.72476V4.7244V4.72404V4.72368V4.72332V4.72296V4.7226V4.72224V4.72188V4.72152V4.72116V4.7208V4.72044V4.72007V4.71971V4.71935V4.71899V4.71862V4.71826V4.7179V4.71753V4.71717V4.7168V4.71644V4.71607V4.71571V4.71534V4.71498V4.71461V4.71425V4.71388V4.71351V4.71315V4.71278V4.71241V4.71204C2.29666 3.52677 3.23004 2.58586 4.33384 2.58586C4.4592 2.58586 4.53626 2.58704 4.61769 2.60237L4.99389 2.67317L5.16039 2.32848C5.69933 1.2128 6.81532 0.5 8.01214 0.5C8.45883 0.5 8.88604 0.59614 9.2977 0.781566C9.97774 1.09619 10.5258 1.63944 10.8652 2.33126L11.036 2.67917L11.4155 2.60061C11.4786 2.58754 11.5489 2.58586 11.6783 2.58586C12.7821 2.58586 13.7155 3.52677 13.7155 4.71204V4.71241V4.71278V4.71315V4.71351V4.71388V4.71425V4.71461V4.71498V4.71534V4.71571V4.71607V4.71644V4.7168V4.71717V4.71753V4.7179V4.71826V4.71862V4.71899V4.71935V4.71971V4.72007V4.72044V4.7208V4.72116V4.72152V4.72188V4.72224V4.7226V4.72296V4.72332V4.72368V4.72404V4.7244V4.72476V4.72512V4.72548V4.72583V4.72619V4.72655V4.72691V4.72726V4.72762V4.72798V4.72833V4.72869V4.72905V4.7294V4.72976V4.73011V4.73047V4.73082V4.73118V4.73153V4.73189V4.73224V4.73259V4.73295V4.7333V4.73365V4.73401V4.73436V4.73471V4.73506V4.73541V4.73577V4.73612V4.73647V4.73682V4.73717V4.73752V4.73787V4.73822V4.73857V4.73892V4.73927V4.73962V4.73997V4.74032V4.74067V4.74102V4.74136V4.74171V4.74206V4.74241V4.74276V4.7431V4.74345V4.7438V4.74415V4.74449V4.74484V4.74518V4.74553V4.74588V4.74622V4.74657V4.74691V4.74726V4.7476V4.74795V4.74829V4.74864V4.74898V4.74933V4.74967V4.75001V4.75036V4.7507V4.75105V4.75139V4.75173V4.75207V4.75242V4.75276V4.7531V4.75344V4.75379V4.75413V4.75447V4.75481V4.75515V4.75549V4.75584V4.75618V4.75652V4.75686V4.7572V4.75754V4.75788V4.75822V4.75856V4.7589V4.75924V4.75958V4.75992V4.76026V4.7606V4.76094V4.76128V4.76161V4.76195V4.76229V4.76263V4.76297V4.76331V4.76364V4.76398V4.76432V4.76466V4.765V4.76533V4.76567V4.76601V4.76634V4.76668V4.76702V4.76735V4.76769V4.76803V4.76836V4.7687V4.76904V4.76937V4.76971V4.77005V4.77038V4.77072V4.77105V4.77139V4.77172V4.77206V4.77239V4.77273V4.77306V4.7734V4.77373V4.77407V4.7744V4.77474V4.77507V4.77541V4.77574V4.77608V4.77641V4.77674V4.77708V4.77741V4.77775V4.77808V4.77841V4.77875V4.77908V4.77941V4.77975V4.78008V4.78041V4.78075V4.78108V4.78141V4.78175V4.78208V4.78241V4.78275V4.78308V4.78341V4.78374V4.78408V4.78441V4.78474V4.78507V4.78541V4.78574V4.78607V4.7864V4.78674V4.78707V4.7874V4.78773V4.78806V4.7884V4.78873V4.78906V4.78939V4.78972V4.79006V4.79039V4.79072V4.79105V4.79138V4.79171V4.79205V4.79238V4.79271V4.79304V4.79337V4.7937V4.79404V4.79437V4.7947V4.79503V4.79536V4.79569V4.79602V4.79636V4.79669V4.79702V4.79735V4.79768V4.79801V4.79834V4.79867V4.79901V4.79934V4.79967V4.8V4.80033V4.80066V4.80099V4.80133V4.80166V4.80199V4.80232V4.80265V4.80298V4.80331V4.80364V4.80398V4.80431V4.80464V4.80497V4.8053V4.80563V4.80596V4.8063V4.80663V4.80696V4.80729V4.80762V4.80795V4.80829V4.80862V4.80895V4.80928V4.80961V4.80994V4.81028V4.81061V4.81094V4.81127V4.8116V4.81194V4.81227V4.8126V4.81293V4.81326V4.8136V4.81393V4.81426V4.81459V4.81493V4.81526V4.81559V4.81592V4.81626V4.81659V4.81692V4.81725V4.81759V4.81792V4.81825V4.81859V4.81892V4.81925V4.81959V4.81992V4.82025V4.82059V4.82092V4.82125V4.82159V4.82192V4.82225V4.82259V4.82292V4.82326V4.82359V4.82392V4.82426V4.82459V4.82493V4.82526V4.8256V4.82593V4.82627V4.8266V4.82694V4.82727V4.82761V4.82794V4.82828V4.82861V4.82895V4.82928V4.82962V4.82995V4.83029V4.83063V4.83096V4.8313V4.83163V4.83197V4.83231V4.83264V4.83298V4.83332V4.83366V4.83399V4.83433V4.83467V4.835V4.83534V4.83568V4.83602V4.83636V4.83669V4.83703V4.83737V4.83771V4.83805V4.83839V4.83872V4.83906V4.8394V4.83974V4.84008V4.84042V4.84076V4.8411V4.84144V4.84178V4.84212V4.84246V4.8428V4.84314V4.84348V4.84382V4.84416V4.84451V4.84485V4.84519V4.84553V4.84587V4.84621V4.84656V4.8469V4.84724V4.84758V4.84793V4.84827V4.84861V4.84895V4.8493V4.84964V4.84999V4.85033V4.85067V4.85102V4.85136V4.85171V4.85205V4.8524V4.85274V4.85309V4.85343V4.85378V4.85412V4.85447V4.85482V4.85516V4.85551V4.85585V4.8562V4.85655V4.8569V4.85724V4.85759V4.85794V4.85829V4.85863V4.85898V4.85933V4.85968V4.86003V4.86038V4.86073V4.86108V4.86143V4.86178V4.86213V4.86248V4.86283V4.86318V4.86353V4.86388V4.86423V4.86459V4.86494V4.86529V4.86564V4.86599V4.86635V4.8667V4.86705V4.86741V4.86776V4.86811V4.86847V4.86882V4.86918V4.86953V4.86989V4.87024V4.8706V4.87095V4.87131V4.87167V4.87202V4.87238V4.87274V4.87309V4.87345V4.87381V4.87417V4.87452V4.87488V4.87524V4.8756V4.87596V4.87632V4.87668V4.87704V4.8774V4.87776V4.87812V4.87848V4.87884V4.8792V4.87956V4.87993V4.88029V4.88065V4.88101V4.88138V4.88174V4.8821V4.88247V4.88283V4.8832V4.88356V4.88393V4.88429V4.88466V4.88502V4.88539V4.88575V4.88612V4.88649V4.88685V4.88722V4.88759V4.88796V5.17985L13.9697 5.32336Z" stroke="#999999"/>
</svg>
