<svg width="17" height="13" viewBox="0 0 17 13" fill="none" xmlns="http://www.w3.org/2000/svg">
<path fill-rule="evenodd" clip-rule="evenodd" d="M8.00748 4.12572C6.9587 4.12572 6.1085 4.97592 6.1085 6.02469C6.1085 7.07346 6.9587 7.92366 8.00748 7.92366C9.05625 7.92366 9.90645 7.07346 9.90645 6.02469C9.90645 4.97591 9.05625 4.12572 8.00748 4.12572ZM5.16492 6.02469C5.16492 4.45479 6.43757 3.18213 8.00748 3.18213C9.57738 3.18213 10.85 4.45479 10.85 6.02469C10.85 7.59459 9.57738 8.86725 8.00748 8.86725C6.43757 8.86725 5.16492 7.59459 5.16492 6.02469Z" fill="#999999"/>
<path fill-rule="evenodd" clip-rule="evenodd" d="M0.397803 4.67613C1.67074 2.70766 4.17937 0 8.00752 0C11.836 0 14.3423 2.70813 15.6172 4.67608L15.6177 4.67677C16.1473 5.49747 16.1478 6.55665 15.6172 7.37585C14.3443 9.34432 11.8357 12.052 8.00752 12.052C4.17906 12.052 1.67277 9.34384 0.397833 7.3759L0.397388 7.37521C-0.132284 6.55451 -0.13278 5.49532 0.397803 4.67613ZM8.00752 0.943588C4.6646 0.943588 2.40345 3.31216 1.18998 5.18879L1.18978 5.18908C0.861769 5.69553 0.861206 6.35351 1.19 6.86322C2.40619 8.74033 4.66494 11.1084 8.00752 11.1084C11.3505 11.1084 13.6116 8.73982 14.8251 6.86319L14.8253 6.86289C15.1533 6.35638 15.1538 5.6983 14.8249 5.18855C13.6087 3.31147 11.35 0.943588 8.00752 0.943588Z" fill="#999999"/>
</svg>
