<svg width="15" height="15" viewBox="0 0 15 15" fill="none" xmlns="http://www.w3.org/2000/svg">
<g clip-path="url(#clip0_102_155)">
<path d="M10.6493 7.40169C10.5646 7.29914 10.4665 7.20996 10.3595 7.1297C10.306 7.09402 10.2525 7.05835 10.1946 7.02714C10.1991 7.00484 10.1991 6.97809 10.1991 6.9558C10.1991 6.86216 10.1857 6.77298 10.1634 6.68826C10.1277 6.53219 10.0564 6.39396 9.95834 6.27357L9.17379 7.05389H7.94348V5.8143L8.46057 5.29706C8.3625 5.22571 8.25998 5.16329 8.14853 5.11424C8.11733 5.10086 8.08167 5.08748 8.05046 5.07857C7.87662 5.01168 7.70277 4.98047 7.51555 4.98047H7.50217C6.89593 4.98047 6.34318 5.32381 6.07127 5.86335C6.01778 5.85443 5.96428 5.85443 5.91079 5.85443C5.30009 5.85443 4.80529 6.34492 4.80529 6.9558C4.80529 6.97809 4.80529 7.00484 4.80975 7.02714C4.40411 7.24117 4.12327 7.6291 4.04749 8.08392C4.03412 8.16418 4.02966 8.24444 4.02966 8.3247C4.02966 8.52981 4.06978 8.72601 4.15448 8.91329C4.38628 9.4439 4.91228 9.78725 5.49623 9.78725C5.79489 9.78725 6.07573 9.70253 6.3209 9.53308C6.63739 9.84075 7.06087 10.0147 7.50217 10.0147C7.94348 10.0147 8.37587 9.84075 8.68791 9.53308C8.93308 9.70253 9.21837 9.78725 9.51703 9.78725C10.3239 9.78725 10.9791 9.13178 10.9791 8.3247C10.9791 7.99028 10.8632 7.66477 10.6537 7.40169H10.6493Z" fill="#99D7F3"/>
<path d="M12.6285 14.9999H1.98811C0.89153 14.9999 0 14.1081 0 13.0112V2.36761C0 1.2707 0.89153 0.378906 1.98811 0.378906H8.5899C8.83507 0.378906 9.03566 0.57956 9.03566 0.824804C9.03566 1.07005 8.83507 1.2707 8.5899 1.2707H1.98811C1.38187 1.2707 0.89153 1.76119 0.89153 2.36761V13.0112C0.89153 13.6176 1.38187 14.1081 1.98811 14.1081H12.6285C13.2348 14.1081 13.7251 13.6176 13.7251 13.0112V6.42082C13.7251 6.17558 13.9257 5.97492 14.1709 5.97492C14.416 5.97492 14.6166 6.17558 14.6166 6.42082V13.0112C14.6166 14.1081 13.7251 14.9999 12.6285 14.9999Z" fill="#CBCBCB"/>
<path d="M14.1664 0.824323C13.6538 0.31154 12.8202 0.315999 12.3075 0.824323C12.3075 0.828782 12.3031 0.828782 12.3031 0.828782L8.05049 5.07819L7.5022 5.62664V7.49495H9.36104L10.1679 6.68788L14.1708 2.69709V2.68818C14.4338 2.43401 14.5587 2.09513 14.5587 1.76071C14.5587 1.42628 14.4294 1.08294 14.1708 0.824323H14.1664ZM13.8544 2.38051L9.95836 6.27319L9.17382 7.05351H7.9435V5.81392L8.46059 5.29668L12.6062 1.15429L12.6374 1.12753C12.9807 0.802028 13.52 0.810946 13.8544 1.14091C14.0193 1.30589 14.1084 1.52438 14.1084 1.76071C14.1084 1.99703 14.0193 2.21106 13.8544 2.38051Z" fill="white"/>
<path d="M14.4829 0.507906C13.7964 -0.169859 12.682 -0.174318 11.9866 0.516824L7.51114 4.98026L7.052 5.43953V7.94548H9.54383L10.3596 7.12949L14.4874 3.00493C14.8217 2.67051 15 2.22907 15 1.76088C15 1.29269 14.8172 0.842329 14.4829 0.507906ZM13.8544 2.38068L9.95839 6.27336L9.17384 7.05368H7.94353V5.81409L8.46062 5.29685L12.6062 1.15446L12.6374 1.1277C12.9807 0.802198 13.5201 0.811116 13.8544 1.14108C14.0193 1.30606 14.1085 1.52455 14.1085 1.76088C14.1085 1.9972 14.0193 2.21124 13.8544 2.38068Z" fill="#CBCBCB"/>
</g>
<defs>
<clipPath id="clip0_102_155">
<rect width="15" height="15" fill="white"/>
</clipPath>
</defs>
</svg>
