<svg width="14" height="15" viewBox="0 0 14 15" fill="none" xmlns="http://www.w3.org/2000/svg">
<path fill-rule="evenodd" clip-rule="evenodd" d="M6.6405 1.80296C3.49418 1.80296 0.943588 4.35356 0.943588 7.49988C0.943588 10.6462 3.49418 13.1968 6.6405 13.1968C9.78682 13.1968 12.3374 10.6462 12.3374 7.49988C12.3374 4.35356 9.78682 1.80296 6.6405 1.80296ZM0 7.49988C0 3.83243 2.97305 0.859375 6.6405 0.859375C10.3079 0.859375 13.281 3.83243 13.281 7.49988C13.281 11.1673 10.3079 14.1404 6.6405 14.1404C2.97305 14.1404 0 11.1673 0 7.49988Z" fill="#999999"/>
<path fill-rule="evenodd" clip-rule="evenodd" d="M6.64048 3.60059C6.90104 3.60059 7.11227 3.81182 7.11227 4.07238V7.02817H10.0681C10.3286 7.02817 10.5399 7.2394 10.5399 7.49996C10.5399 7.76053 10.3286 7.97176 10.0681 7.97176H6.64048C6.37992 7.97176 6.16869 7.76053 6.16869 7.49996V4.07238C6.16869 3.81182 6.37992 3.60059 6.64048 3.60059Z" fill="#999999"/>
</svg>
