<svg width="16" height="12" viewBox="0 0 16 12" fill="none" xmlns="http://www.w3.org/2000/svg">
<path d="M14.7532 7.55943L14.7458 7.57089L14.7391 7.58273L14.6667 7.7098C13.2706 10.0813 10.7824 11.5 8.00927 11.5C5.23537 11.5 2.73644 10.0807 1.34074 7.7098L1.26832 7.58273L1.26157 7.57088L1.25419 7.55943C0.799189 6.85343 0.538831 6.01164 0.5 5.12893V5.12887V5.1287V5.12852V5.12835V5.12817V5.128V5.12783V5.12765V5.12748V5.1273V5.12713V5.12696V5.12678V5.12661V5.12643V5.12626V5.12608V5.12591V5.12574V5.12556V5.12539V5.12521V5.12504V5.12487V5.12469V5.12452V5.12434V5.12417V5.12399V5.12382V5.12365V5.12347V5.1233V5.12312V5.12295V5.12277V5.1226V5.12243V5.12225V5.12208V5.1219V5.12173V5.12156V5.12138V5.12121V5.12103V5.12086V5.12068V5.12051V5.12034V5.12016V5.11999V5.11981V5.11964V5.11946V5.11929V5.11912V5.11894V5.11877V5.11859V5.11842V5.11825V5.11807V5.1179V5.11772V5.11755V5.11737V5.1172V5.11703V5.11685V5.11668V5.1165V5.11633V5.11616V5.11598V5.11581V5.11563V5.11546V5.11528V5.11511V5.11494V5.11476V5.11459V5.11441V5.11424V5.11406V5.11389V5.11372V5.11354V5.11337V5.11319V5.11302V5.11285V5.11267V5.1125V5.11232V5.11215V5.11197V5.1118V5.11163V5.11145V5.11128V5.1111V5.11093V5.11075V5.11058V5.11041V5.11023V5.11006V5.10988V5.10971V5.10954V5.10936V5.10919V5.10901V5.10884V5.10866V5.10849V5.10832V5.10814V5.10797V5.10779V5.10762V5.10744V5.10727V5.1071V5.10692V5.10675V5.10657V5.1064V5.10623V5.10605V5.10588V5.1057V5.10553V5.10535V5.10518V5.10501V5.10483V5.10466V5.10448V5.10431V5.10414V5.10396V5.10379V5.10361V5.10344V5.10326V5.10309V5.10292V5.10274V5.10257V5.10239V5.10222V5.10204V5.10187V5.1017V5.10152V5.10135V5.10117V5.101V5.10083V5.10065V5.10048V5.1003V5.10013V5.09995V5.09978V5.09961V5.09943V5.09926V5.09908V5.09891V5.09873V5.09856V5.09839V5.09821V5.09804V5.09786V5.09769V5.09752V5.09734V5.09717V5.09699V5.09682V5.09664V5.09647V5.0963V5.09612V5.09595V5.09577V5.0956V5.09543V5.09525V5.09508V5.0949V5.09473V5.09455V5.09438V5.09421V5.09403V5.09386V5.09368V5.09351V5.09333V5.09316V5.09299V5.09281V5.09264V5.09246V5.09229V5.09211V5.09194V5.09177V5.09159V5.09142V5.09124V5.09107V5.0909V5.09072V5.09055V5.09037V5.0902V5.09002V5.08985V5.08968V5.0895V5.08933V5.08915V5.08898V5.08881V5.08863V5.08846V5.08828V5.08811V5.08793V5.08776V5.08759V5.08741V5.08724V5.08706V5.08689V5.08671V5.08654V5.08637V5.08619V5.08602V5.08584V5.08567V5.0855V5.08532V5.08515V5.08497V5.0848V5.08462V5.08445V5.08428V5.0841V5.08393V5.08375V5.08358V5.08341V5.08323V5.08306V5.08288V5.08271V5.08253V5.08236V5.08219V5.08201V5.08184V5.08166V5.08149V5.08131V5.08114V5.08097V5.08079V5.08062V5.08044V5.08027V5.0801V5.07992V5.07975V5.07957V5.0794V5.07922V5.07905V5.07888V5.0787V5.07853V5.07835V5.07818V5.078V5.07783V5.07766V5.07748V5.07731V5.07713V5.07696V5.07679V5.07661V5.07644V5.07626V5.07609V5.07591V5.07574V5.07557V5.07539V5.07522V5.07504V5.07487V5.0747V5.07452V5.07435V5.07417V5.074V5.07382V5.07365V5.07348V5.0733V5.07313V5.07295V5.07278V5.0726V5.07243V5.07226V5.07208V5.07191V5.07173V5.07156V5.07138V5.07121V5.07104V5.07086V5.07069V5.07051V5.07034V5.07017V5.06999V5.06982V5.06964V5.06947V5.06929V5.06912V5.06895V5.06877V5.0686V5.06842V5.06825V5.06808V5.0679V5.06773V5.06755V5.06738V5.0672V5.06703V5.06686V5.06668V5.06651V5.06633V5.06616V5.06598V5.06581V5.06564V5.06546V5.06529V5.06511V5.06494V5.06477V5.06459V5.06442V5.06424V5.06407V5.06389V5.06372V5.06355V5.06337V5.0632V5.06302V5.06285V5.06267V5.0625V5.06233V5.06215V5.06198V5.0618V5.06163V5.06146V5.06128V5.06111V5.06093V5.06076V5.06058V5.06041V5.06024V5.06006V5.05989V5.05971V5.05954V5.05937V5.05919V5.05902V5.05884V5.05867V5.05849V5.05832V5.05815V5.05797V5.0578V5.05762V5.05745V5.05727V5.0571V5.05693V5.05675V5.05658V5.0564V5.05623V5.05606V5.05588V5.05571V5.05553V5.05536V5.05518V5.05501V5.05484V5.05466V5.05449V5.05431V5.05414V5.05397V5.05379V5.05362V5.05344V5.05327V5.05309V5.05292V5.05275V5.05257V5.0524V5.05222V5.05205V5.05187V5.0517V5.05153V5.05135V5.05118V5.051V5.05083V5.05065V5.05048V4.92784C0.5 2.43138 2.28548 0.503716 4.35488 0.503716C5.50148 0.503716 6.59385 1.08193 7.34302 2.12657C7.49356 2.33748 7.73852 2.46222 7.99815 2.46222C8.26078 2.46222 8.49831 2.33575 8.64828 2.13837L8.65303 2.13211L8.65759 2.12572C9.02933 1.6032 9.49062 1.19805 9.9999 0.91937C10.5099 0.647728 11.0662 0.5 11.6414 0.5C13.7113 0.5 15.5 2.42825 15.5 4.92413V4.92784V4.92808V4.92832V4.92856V4.9288V4.92904V4.92928V4.92952V4.92976V4.93V4.93024V4.93048V4.93072V4.93096V4.9312V4.93144V4.93167V4.93191V4.93215V4.93239V4.93263V4.93287V4.93311V4.93335V4.93359V4.93383V4.93407V4.93431V4.93455V4.93479V4.93503V4.93527V4.93551V4.93575V4.93599V4.93622V4.93646V4.9367V4.93694V4.93718V4.93742V4.93766V4.9379V4.93814V4.93838V4.93862V4.93886V4.9391V4.93934V4.93958V4.93982V4.94005V4.94029V4.94053V4.94077V4.94101V4.94125V4.94149V4.94173V4.94197V4.94221V4.94245V4.94269V4.94293V4.94316V4.9434V4.94364V4.94388V4.94412V4.94436V4.9446V4.94484V4.94508V4.94532V4.94556V4.9458V4.94603V4.94627V4.94651V4.94675V4.94699V4.94723V4.94747V4.94771V4.94795V4.94818V4.94842V4.94866V4.9489V4.94914V4.94938V4.94962V4.94986V4.9501V4.95034V4.95057V4.95081V4.95105V4.95129V4.95153V4.95177V4.95201V4.95224V4.95248V4.95272V4.95296V4.9532V4.95344V4.95368V4.95392V4.95415V4.95439V4.95463V4.95487V4.95511V4.95535V4.95558V4.95582V4.95606V4.9563V4.95654V4.95678V4.95701V4.95725V4.95749V4.95773V4.95797V4.95821V4.95844V4.95868V4.95892V4.95916V4.9594V4.95963V4.95987V4.96011V4.96035V4.96059V4.96082V4.96106V4.9613V4.96154V4.96178V4.96201V4.96225V4.96249V4.96273V4.96297V4.9632V4.96344V4.96368V4.96392V4.96415V4.96439V4.96463V4.96487V4.9651V4.96534V4.96558V4.96582V4.96605V4.96629V4.96653V4.96677V4.967V4.96724V4.96748V4.96771V4.96795V4.96819V4.96843V4.96866V4.9689V4.96914V4.96937V4.96961V4.96985V4.97009V4.97032V4.97056V4.9708V4.97103V4.97127V4.97151V4.97174V4.97198V4.97222V4.97245V4.97269V4.97293V4.97316V4.9734V4.97364V4.97387V4.97411V4.97434V4.97458V4.97482V4.97505V4.97529V4.97553V4.97576V4.976V4.97623V4.97647V4.97671V4.97694V4.97718V4.97742V4.97765V4.97789V4.97812V4.97836V4.97859V4.97883V4.97907V4.9793V4.97954V4.97977V4.98001V4.98024V4.98048V4.98071V4.98095V4.98119V4.98142V4.98166V4.98189V4.98213V4.98236V4.9826V4.98283V4.98307V4.9833V4.98354V4.98377V4.98401V4.98424V4.98448V4.98471V4.98495V4.98518V4.98542V4.98565V4.98589V4.98612V4.98635V4.98659V4.98682V4.98706V4.98729V4.98753V4.98776V4.98799V4.98823V4.98846V4.9887V4.98893V4.98916V4.9894V4.98963V4.98987V4.9901V4.99033V4.99057V4.9908V4.99104V4.99127V4.9915V4.99174V4.99197V4.9922V4.99244V4.99267V4.9929V4.99314V4.99337V4.9936V4.99384V4.99407V4.9943V4.99454V4.99477V4.995V4.99523V4.99547V4.9957V4.99593V4.99616V4.9964V4.99663V4.99686V4.9971V4.99733V4.99756V4.99779V4.99802V4.99826V4.99849V4.99872V4.99895V4.99919V4.99942V4.99965V4.99988V5.00011V5.00034V5.00058V5.00081V5.00104V5.00127V5.0015V5.00173V5.00197V5.0022V5.00243V5.00266V5.00289V5.00312V5.00335V5.00358V5.00382V5.00405V5.00428V5.00451V5.00474V5.00497V5.0052V5.00543V5.00566V5.00589V5.00612V5.00635V5.00658V5.00681V5.00704V5.00727V5.0075V5.00773V5.00796V5.00819V5.00842V5.00865V5.00888V5.00911V5.00934V5.00957V5.0098V5.01003V5.01026V5.01049V5.01072V5.01095V5.01118V5.01141V5.01164V5.01187V5.01209V5.01232V5.01255V5.01278V5.01301V5.01324V5.01347V5.0137V5.01392V5.01415V5.01438V5.01461V5.01484V5.01507V5.01529V5.01552V5.01575V5.01598V5.01621V5.01643V5.01666V5.01689V5.01712V5.01734V5.01757V5.0178V5.01803V5.01825V5.01848V5.01871V5.01893V5.01916V5.01939V5.01962V5.01984V5.02007V5.0203V5.02052V5.02075V5.02098V5.0212V5.02143V5.02166V5.02188V5.02211V5.02233V5.02256V5.02279V5.02301V5.02324V5.02346V5.02369V5.02391V5.02414V5.02437V5.02459V5.02482V5.02504V5.02527V5.02549V5.02572V5.02594V5.02617V5.02639V5.02662V5.02684V5.02707V5.02729V5.02752V5.02774V5.02797V5.02819V5.02841V5.02864V5.02886V5.02909V5.02931V5.02953V5.02976V5.02998V5.03021V5.03043V5.03065V5.03088V5.0311V5.03132V5.03155V5.03177V5.03199V5.03222V5.03244V5.03266V5.03288V5.03311V5.03333V5.03355V5.03377V5.034V5.03422V5.03444V5.03466V5.03489V5.03511V5.03533V5.03555V5.03577V5.036V5.03622V5.03644V5.03666V5.03688V5.0371V5.03732V5.03755V5.03777V5.03799V5.03821V5.03843V5.03865V5.03887V5.03909V5.03931V5.03953V5.03975V5.03997V5.04019V5.04041V5.04063V5.04085V5.04107V5.04129V5.04151V5.04173V5.04195V5.04217V5.04239V5.04261V5.04283V5.04305V5.04327V5.04349V5.04371V5.04393V5.04415V5.04436V5.04458V5.0448V5.04502V5.04524V5.04546V5.04567V5.04589V5.04611V5.04633V5.04655V5.04676V5.04696V5.04716V5.04735V5.04755V5.04774V5.04794V5.04813V5.04833V5.04852V5.04872V5.04891V5.04911V5.0493V5.0495V5.04969V5.04989V5.05008V5.05028V5.05047V5.05067V5.05086V5.05106V5.05125V5.05144V5.05164V5.05183V5.05203V5.05222V5.05241V5.05261V5.0528V5.05299V5.05319V5.05338V5.05357V5.05377V5.05396V5.05415V5.05434V5.05454V5.05473V5.05492V5.05511V5.05531V5.0555V5.05569V5.05588V5.05608V5.05627V5.05646V5.05665V5.05684V5.05704V5.05723V5.05742V5.05761V5.0578V5.05799V5.05818V5.05838V5.05857V5.05876V5.05895V5.05914V5.05933V5.05952V5.05971V5.0599V5.06009V5.06028V5.06047V5.06066V5.06085V5.06105V5.06123V5.06143V5.06161V5.0618V5.062V5.06218V5.06237V5.06256V5.06275V5.06294V5.06313V5.06332V5.06351V5.0637V5.06389V5.06408V5.06427V5.06446V5.06464V5.06483V5.06502V5.06521V5.0654V5.06559V5.06578V5.06596V5.06615V5.06634V5.06653V5.06672V5.06691V5.06709V5.06728V5.06747V5.06766V5.06784V5.06803V5.06822V5.06841V5.06859V5.06878V5.06897V5.06916V5.06934V5.06953V5.06972V5.0699V5.07009V5.07028V5.07046V5.07065V5.07084V5.07102V5.07121V5.0714V5.07158V5.07177V5.07196V5.07214V5.07233V5.07251V5.0727V5.07289V5.07307V5.07326V5.07344V5.07363V5.07381V5.074V5.07419V5.07437V5.07456V5.07474V5.07493V5.07511V5.0753V5.07548V5.07567V5.07585V5.07604V5.07622V5.07641V5.07659V5.07678V5.07696V5.07715V5.07733V5.07751V5.0777V5.07788V5.07807V5.07825V5.07844V5.07862V5.0788V5.07899V5.07917V5.07936V5.07954V5.07972V5.07991V5.08009V5.08027V5.08046V5.08064V5.08082V5.08101V5.08119V5.08137V5.08156V5.08174V5.08192V5.08211V5.08229V5.08247V5.08265V5.08284V5.08302V5.0832V5.08339V5.08357V5.08375V5.08393V5.08412V5.0843V5.08448V5.08466V5.08484V5.08503V5.08521V5.08539V5.08557V5.08575V5.08594V5.08612V5.0863V5.08648V5.08666V5.08685V5.08703V5.08721V5.08739V5.08757V5.08775V5.08793V5.08812V5.0883V5.08848V5.08866V5.08884V5.08902V5.0892V5.08938V5.08956V5.08975V5.08993V5.09011V5.09029V5.09047V5.09065V5.09083V5.09101V5.09119V5.09137V5.09155V5.09173V5.09191V5.09209V5.09227V5.09245V5.09263V5.09281V5.09299V5.09317V5.09335V5.09353V5.09371V5.09389V5.09407V5.09425V5.09443V5.09461V5.09479V5.09497V5.09515V5.09533V5.09551V5.09569V5.09587V5.09605V5.09623V5.09641V5.09659V5.09676V5.09694V5.09712V5.0973V5.09748V5.09766V5.09784V5.09802V5.0982V5.09838V5.09855V5.09873V5.09891V5.09909V5.09927V5.09945V5.09963V5.0998V5.09998V5.10016V5.10034V5.10052V5.1007V5.10087V5.10105V5.10123V5.10141V5.10159V5.10177V5.10194V5.10212V5.1023V5.10248V5.10266V5.10283V5.10301V5.10319V5.10337V5.10354V5.10372V5.1039V5.10408V5.10426V5.10443V5.10461V5.10479V5.10497V5.10514V5.10532V5.1055V5.10567V5.10585V5.10603V5.10621V5.10638V5.10656V5.10674V5.10692V5.10709V5.10727V5.10745V5.10762V5.1078V5.10798V5.10815V5.10833V5.10851V5.10869V5.10886V5.10904V5.10922V5.10939V5.10957V5.10975V5.10992V5.1101V5.11028V5.11045V5.11063V5.1108V5.11098V5.11116V5.11133V5.11151V5.11169V5.11186V5.11204V5.11222V5.11239V5.11257V5.11274V5.11292V5.1131V5.11327V5.11345V5.11362V5.1138V5.11398V5.11415V5.11433V5.1145V5.11468V5.11486V5.11503V5.11521V5.11538V5.11556V5.11574V5.11591V5.11609V5.11626V5.11644V5.11661V5.11679V5.11697V5.11714V5.11732V5.11749V5.11767V5.11784V5.11802V5.11819V5.11837V5.11855V5.11872V5.1189V5.11907V5.11925V5.11942V5.1196V5.11977V5.11995V5.12012V5.1203V5.12047V5.12065V5.12082V5.121V5.12117V5.12135V5.12152V5.1217V5.12187V5.12205V5.12222V5.1224V5.12257V5.12275V5.12292V5.1231V5.12327V5.12345V5.12362V5.1238V5.12397V5.12415V5.12432V5.1245V5.12467V5.12485V5.12502V5.1252V5.12537V5.12555V5.12572V5.1259V5.12607V5.12625V5.12642V5.1266V5.12677V5.12695V5.12712V5.12729V5.12747V5.12764V5.12782V5.12799V5.12817V5.12834V5.12852V5.12869V5.12887V5.12904V5.12921V5.12939V5.12956V5.12974V5.12991V5.13009V5.13026V5.13044V5.13061V5.13078V5.13088C15.4683 6.01159 15.2085 6.85293 14.7532 7.55943Z" stroke="#999999"/>
</svg>
