<svg width="15" height="14" viewBox="0 0 15 14" fill="none" xmlns="http://www.w3.org/2000/svg">
<path d="M9.81032 10.6307C9.81032 10.6307 9.81032 10.6578 9.81032 10.6655C9.81032 10.6771 9.81032 10.6849 9.81032 10.6926C9.79871 10.9907 9.71354 11.2771 9.55483 11.521L9.53161 11.5597C9.07096 12.3378 8.25419 12.8061 7.34064 12.8061C6.42709 12.8061 5.61032 12.3416 5.14967 11.5597L5.12645 11.521C4.97161 11.2771 4.88258 10.9907 4.87096 10.6926C4.87096 10.6849 4.87096 10.6732 4.87096 10.6655V10.6268C4.87096 9.79066 5.47484 9.10938 6.21806 9.10938C6.62838 9.10938 7.00774 9.31454 7.26709 9.67454C7.28645 9.69776 7.31354 9.71325 7.34451 9.71325C7.37548 9.71325 7.40258 9.69776 7.42193 9.67454C7.54967 9.49647 7.70838 9.35325 7.89032 9.25647C8.06838 9.1597 8.2658 9.10938 8.47097 9.10938C9.21419 9.10938 9.81806 9.79066 9.81806 10.6268L9.81032 10.6307Z" fill="#F8B7D0"/>
<path d="M1 13C1.45961 10.5695 3.22759 8.60634 5.52873 7.91145C4.45323 7.26331 3.73623 6.07297 3.73623 4.71436C3.73623 2.66087 5.36939 1 7.38863 1C9.40786 1 11.041 2.66087 11.041 4.71436C11.041 6.07297 10.321 7.26331 9.24853 7.91145C10.2995 8.22618 11.231 8.80888 11.9878 9.57544C12.8887 10.4916 13.526 11.6726 13.7742 13" stroke="#CCCCCC" stroke-linecap="round" stroke-linejoin="round"/>
</svg>
