<svg width="35" height="25" viewBox="0 0 35 25" fill="none" xmlns="http://www.w3.org/2000/svg">
<path d="M32.8796 12.0419C33.9267 13.3246 34.5026 14.9476 34.5026 16.5969C34.5026 20.6021 31.2565 23.8743 27.2251 23.8743C25.733 23.8743 24.3194 23.4293 23.1152 22.5916C21.5445 24.1361 19.4241 25 17.2251 25C15.0262 25 12.9058 24.1361 11.3613 22.5916C10.1571 23.4293 8.74346 23.8743 7.25131 23.8743C4.37173 23.8743 1.75393 22.1728 0.602098 19.5288C0.209428 18.6126 0 17.6178 0 16.5969C0 16.2042 0.0261804 15.8115 0.104714 15.4188C0.471207 13.1675 1.88482 11.2304 3.87435 10.1832C3.87435 10.0524 3.87435 9.94764 3.87435 9.81675C3.87435 6.80628 6.33508 4.34555 9.34555 4.34555C9.60733 4.34555 9.86911 4.34555 10.1571 4.3979C11.4922 1.72775 14.267 0 17.2775 0C18.4031 0 19.4764 0.2356 20.4974 0.680626C22.199 1.43979 23.5602 2.74869 24.3979 4.3979C24.6597 4.34555 24.9215 4.34555 25.1833 4.34555C28.1937 4.34555 30.6544 6.80628 30.6544 9.81675C30.6544 9.94764 30.6544 10.0524 30.6544 10.1832C31.5183 10.6544 32.3037 11.2827 32.9058 12.0419H32.8796Z" fill="#99D7F3"/>
</svg>
