<svg width="82" height="82" viewBox="0 0 82 82" fill="none" xmlns="http://www.w3.org/2000/svg">
<path d="M41 81C63.0914 81 81 63.0914 81 41C81 18.9086 63.0914 1 41 1C18.9086 1 1 18.9086 1 41C1 63.0914 18.9086 81 41 81Z" fill="#FDF4F7" stroke="#F28AB8" stroke-width="0.983392" stroke-miterlimit="10"/>
<path d="M38.2097 35.4541L40.9999 40.2233L43.7902 35.4541H53.5174C55.4755 35.4541 57.0629 33.8667 57.0629 31.9087V15.2164C57.0629 13.2583 55.4755 11.6709 53.5174 11.6709H28.4825C26.5244 11.6709 24.937 13.2583 24.937 15.2164V31.9087C24.937 33.8667 26.5244 35.4541 28.4825 35.4541H38.2097Z" fill="white" stroke="#D6D7D8" stroke-width="0.819493" stroke-miterlimit="10"/>
<path d="M35.5037 59.9238C35.4338 59.8888 35.3778 59.8189 35.3918 59.7419C35.3918 59.672 35.4478 59.6231 35.4967 59.5811L35.9163 59.1615L35.9652 59.1405C36.0492 59.0566 36.196 59.1056 36.252 59.2035C36.3079 59.3014 36.2869 59.4273 36.238 59.5252C36.1471 59.735 35.9513 59.8888 35.7345 59.9377C35.6575 59.9517 35.5736 59.9587 35.5037 59.9238Z" fill="white"/>
<path d="M34.1325 58.9863C34.0766 58.5387 34.3843 58.0352 34.8109 57.8744C35.1186 57.7485 35.8249 57.8394 35.734 58.3219C35.713 58.4548 35.6081 58.5527 35.5172 58.6436L34.9088 59.231C34.7969 59.3359 34.671 59.4548 34.5172 59.4478C34.2934 59.4408 34.1535 59.2031 34.1325 58.9863Z" fill="white"/>
<path d="M46.6153 59.5811L47.0349 59.1615L47.0839 59.1405C47.1678 59.0566 47.3147 59.1056 47.3706 59.2035C47.4265 59.3014 47.4056 59.4273 47.3566 59.5252C47.2657 59.735 47.0699 59.8888 46.8531 59.9377C46.7762 59.9517 46.6923 59.9587 46.6223 59.9238C46.5524 59.8888 46.4965 59.8189 46.5105 59.7419C46.5175 59.672 46.5664 59.6231 46.6153 59.5811Z" fill="white"/>
<path d="M45.6363 59.4478C45.4125 59.4408 45.2727 59.2031 45.2517 58.9863C45.1957 58.5387 45.5034 58.0352 45.93 57.8744C46.2377 57.7485 46.944 57.8394 46.8531 58.3219C46.8321 58.4548 46.7272 58.5527 46.6363 58.6436L46.0279 59.231C45.916 59.3359 45.7902 59.4548 45.6363 59.4478Z" fill="white"/>
<path d="M46.5037 63.923C46.5037 64.7552 47.182 65.4265 48.0072 65.4265H50.175C51.0002 65.4265 51.6785 64.7552 51.6785 63.923C51.6785 63.0908 51.0002 62.4125 50.175 62.4125H48.0072C47.182 62.4125 46.5037 63.0908 46.5037 63.923ZM44.245 59.916C44.245 61.1677 45.2589 62.1817 46.5037 62.1817C47.1261 62.1817 47.6995 61.93 48.1121 61.5104C48.5247 61.1118 48.7764 60.5454 48.7764 59.916V58.9579C48.7764 57.7132 47.7554 56.6992 46.5037 56.6992C45.2519 56.6992 44.245 57.7132 44.245 58.9579V59.916ZM33.1261 59.916C33.1261 61.1677 34.1401 62.1817 35.3848 62.1817C36.0072 62.1817 36.5806 61.93 36.9932 61.5104C37.4058 61.1118 37.6575 60.5454 37.6575 59.916V58.9579C37.6575 57.7132 36.6366 56.6992 35.3848 56.6992C34.1331 56.6992 33.1261 57.7132 33.1261 58.9579V59.916ZM33.9862 62.4125H31.8184C30.9862 62.4125 30.3149 63.0908 30.3149 63.923C30.3149 64.7552 30.9862 65.4265 31.8184 65.4265H33.9862C34.8114 65.4265 35.4827 64.7552 35.4827 63.923C35.4827 63.0908 34.8114 62.4125 33.9862 62.4125ZM45.0492 62.916C44.9023 62.6852 44.6016 62.6293 44.3848 62.7831C43.5247 63.3705 42.2799 63.7132 40.9932 63.7132C39.7065 63.7132 38.4687 63.3705 37.6086 62.7831C37.3918 62.6293 37.0911 62.6852 36.9443 62.916C36.7904 63.1258 36.8464 63.4265 37.0701 63.5803C38.1051 64.2796 39.5037 64.6712 40.9932 64.6712C42.4827 64.6712 43.8883 64.2796 44.9303 63.5803C45.1471 63.4265 45.203 63.1258 45.0492 62.916ZM60.7485 56.1468C60.7485 56.2447 60.7345 56.3426 60.7345 56.4335V56.6503C60.6436 58.9789 59.9652 61.1957 58.7554 63.0628C58.7485 63.0838 58.7415 63.0908 58.7275 63.1118C58.6645 63.2237 58.5946 63.3356 58.5317 63.4475C56.6925 66.5663 54.1261 69.0489 51.1261 70.7621C48.1121 72.4754 44.6506 73.4055 40.9932 73.4055C33.6925 73.4055 27.1401 69.6782 23.4617 63.4405C23.3918 63.3356 23.3289 63.2237 23.2729 63.1118C23.2659 63.0908 23.252 63.0838 23.245 63.0628C22.0352 61.1957 21.3499 58.9719 21.2659 56.6503C21.2659 56.5733 21.252 56.5034 21.252 56.4335V56.1468C21.252 49.7132 25.8324 44.4824 31.4617 44.4824C34.5387 44.4824 37.4198 46.0419 39.3638 48.7691C39.7415 49.2936 40.3499 49.6083 40.9932 49.6013C41.6436 49.6013 42.252 49.2936 42.6296 48.7691C44.5806 46.0419 47.4617 44.4824 50.5317 44.4824C56.168 44.4824 60.7485 49.7132 60.7485 56.1468Z" fill="white"/>
<path d="M50.1752 62.4131C51.0004 62.4131 51.6787 63.0914 51.6787 63.9236C51.6787 64.7557 51.0004 65.4271 50.1752 65.4271H48.0074C47.1822 65.4271 46.5039 64.7557 46.5039 63.9236C46.5039 63.0914 47.1822 62.4131 48.0074 62.4131H50.1752Z" fill="#F7C4DA"/>
<path d="M47.371 59.2027C47.315 59.1048 47.1682 59.0559 47.0843 59.1398L47.0353 59.1608L46.6157 59.5803C46.5668 59.6223 46.5178 59.6712 46.5109 59.7412C46.4969 59.8181 46.5528 59.888 46.6227 59.923C46.6927 59.958 46.7766 59.951 46.8535 59.937C47.0703 59.888 47.2661 59.7342 47.357 59.5244C47.406 59.4265 47.4269 59.3006 47.371 59.2027ZM46.5039 56.6992C47.7556 56.6992 48.7766 57.7132 48.7766 58.958V59.916C48.7766 60.5454 48.5248 61.1118 48.1122 61.5104C47.6997 61.93 47.1262 62.1817 46.5039 62.1817C45.2591 62.1817 44.2451 61.1677 44.2451 59.916V58.958C44.2451 57.7132 45.2591 56.6992 46.5039 56.6992ZM45.9304 57.874C45.5039 58.0349 45.1962 58.5384 45.2521 58.9859C45.2731 59.2027 45.413 59.4405 45.6367 59.4475C45.7906 59.4545 45.9164 59.3356 46.0283 59.2307L46.6367 58.6433C46.7276 58.5524 46.8325 58.4545 46.8535 58.3216C46.9444 57.8391 46.2381 57.7482 45.9304 57.874Z" fill="#F28AB8"/>
<path d="M40.9932 63.7138C42.2799 63.7138 43.5246 63.3711 44.3848 62.7837C44.6016 62.6298 44.9023 62.6858 45.0491 62.9166C45.203 63.1263 45.147 63.427 44.9302 63.5809C43.8883 64.2802 42.4967 64.6718 40.9932 64.6718C39.4897 64.6718 38.1051 64.2802 37.0701 63.5809C36.8463 63.427 36.7904 63.1263 36.9442 62.9166C37.0911 62.6858 37.3918 62.6298 37.6086 62.7837C38.4687 63.3711 39.7135 63.7138 40.9932 63.7138Z" fill="#F28AB8"/>
<path d="M33.9858 62.4131C34.811 62.4131 35.4823 63.0914 35.4823 63.9236C35.4823 64.7557 34.811 65.4271 33.9858 65.4271H31.8179C30.9858 65.4271 30.3145 64.7557 30.3145 63.9236C30.3145 63.0914 30.9858 62.4131 31.8179 62.4131H33.9858Z" fill="#F7C4DA"/>
<path d="M37.6574 58.958V59.916C37.6574 60.5454 37.4057 61.1118 36.9931 61.5104C36.5805 61.93 36.0071 62.1817 35.3847 62.1817C34.14 62.1817 33.126 61.1677 33.126 59.916V58.958C33.126 57.7132 34.14 56.6992 35.3847 56.6992C36.6295 56.6992 37.6574 57.7132 37.6574 58.958ZM35.4966 59.5803C35.4477 59.6223 35.3987 59.6712 35.3917 59.7412C35.3777 59.8181 35.4337 59.888 35.5036 59.923C35.5735 59.958 35.6574 59.951 35.7344 59.937C35.9511 59.888 36.147 59.7342 36.2379 59.5244C36.2868 59.4265 36.3078 59.3006 36.2519 59.2027C36.1959 59.1048 36.0491 59.0559 35.9651 59.1398L35.9162 59.1608L35.4966 59.5803ZM35.7344 58.3216C35.8253 57.8391 35.119 57.7482 34.8113 57.874C34.3847 58.0349 34.077 58.5384 34.133 58.9859C34.1539 59.2027 34.2938 59.4405 34.5176 59.4475C34.6714 59.4545 34.7973 59.3356 34.9092 59.2307L35.5176 58.6433C35.6085 58.5524 35.7134 58.4545 35.7344 58.3216Z" fill="#F28AB8"/>
<path d="M59.5661 64.0563C55.671 70.6577 48.72 74.6088 40.9927 74.6088C33.2655 74.6088 26.3214 70.6577 22.4263 64.0563C22.3634 63.9445 22.2934 63.8326 22.2305 63.7207C20.9088 61.6647 20.1536 59.2312 20.0627 56.6997C20.0627 56.6228 20.0557 56.5389 20.0557 56.4619V56.1472C20.0557 49.0563 25.1675 43.2871 31.4613 43.2871C34.9228 43.2871 38.1606 45.0284 40.3494 48.0703C40.4962 48.2801 40.734 48.399 40.9927 48.399C41.2515 48.399 41.5032 48.2801 41.6501 48.0703C42.741 46.5528 44.0906 45.357 45.6151 44.5319C47.1256 43.7277 48.7969 43.2871 50.5312 43.2871C56.8249 43.2871 61.9508 49.0563 61.9508 56.1472C61.9508 56.2452 61.9508 56.364 61.9368 56.4549C61.9368 56.5389 61.9368 56.6228 61.9298 56.6997C61.8459 59.2312 61.0906 61.6647 59.762 63.7207C59.692 63.8326 59.6291 63.9445 59.5661 64.0563ZM42.6291 48.7696C42.2515 49.2941 41.6431 49.6018 40.9927 49.6018C40.3494 49.6088 39.741 49.2941 39.3634 48.7696C37.4193 46.0424 34.5382 44.4829 31.4613 44.4829C25.8319 44.4829 21.2515 49.7137 21.2515 56.1472V56.434C21.2515 56.5039 21.2655 56.5738 21.2655 56.6507C21.3494 58.9724 22.0347 61.1962 23.2445 63.0633C23.2515 63.0843 23.2654 63.0913 23.2724 63.1123C23.3284 63.2242 23.3913 63.3361 23.4613 63.441C27.1396 69.6787 33.692 73.406 40.9927 73.406C44.6501 73.406 48.1116 72.4759 51.1256 70.7626C54.1256 69.0493 56.692 66.5668 58.5312 63.448C58.5941 63.3361 58.6641 63.2242 58.727 63.1123C58.741 63.0913 58.748 63.0843 58.755 63.0633C59.9647 61.1962 60.6431 58.9794 60.734 56.6507V56.434C60.734 56.3431 60.748 56.2452 60.748 56.1472C60.748 49.7137 56.1675 44.4829 50.5312 44.4829C47.4613 44.4829 44.5801 46.0424 42.6291 48.7696Z" fill="#F28AB8"/>
<path d="M40.5036 21.1464C40.0281 20.1394 39.0911 19.4541 38.0141 19.4541C36.4547 19.4541 35.189 20.8877 35.189 22.6569C35.189 22.6849 35.189 22.7058 35.189 22.7338C35.189 22.7548 35.189 22.7758 35.189 22.7898C35.2099 23.4471 35.4127 24.0485 35.7344 24.545C36.8533 26.531 39.3848 28.0625 40.2239 28.531C40.3988 28.6289 40.6015 28.6289 40.7764 28.531C41.6155 28.0625 44.147 26.531 45.2659 24.545C45.5876 24.0485 45.7834 23.4471 45.8113 22.7898C45.8113 22.7688 45.8113 22.7478 45.8113 22.7338C45.8113 22.7058 45.8113 22.6849 45.8113 22.6569C45.8113 20.8877 44.5456 19.4541 42.9862 19.4541C41.9092 19.4541 40.9722 20.1394 40.4967 21.1464H40.5036Z" fill="#F28AB8" stroke="#F28AB8" stroke-width="0.655594" stroke-miterlimit="10"/>
</svg>
