<svg width="80" height="80" viewBox="0 0 80 80" fill="none" xmlns="http://www.w3.org/2000/svg">
<path d="M39.8811 79.489C61.6218 79.489 79.2461 61.8107 79.2461 40.0033C79.2461 18.1959 61.6218 0.517578 39.8811 0.517578C18.1404 0.517578 0.516113 18.1959 0.516113 40.0033C0.516113 61.8107 18.1404 79.489 39.8811 79.489Z" fill="white"/>
<path d="M39.8811 80C17.8932 80 0 62.0588 0 39.9965C0 17.9342 17.8932 0 39.8811 0C61.8691 0 79.7623 17.9412 79.7623 40.0035C79.7623 62.0658 61.876 80.0069 39.8811 80.0069V80ZM39.8811 1.03546C18.4644 1.03546 1.0323 18.5141 1.0323 40.0035C1.0323 61.4928 18.4575 78.9714 39.8811 78.9714C61.3048 78.9714 78.73 61.4928 78.73 40.0035C78.73 18.5141 61.3048 1.03546 39.8811 1.03546Z" fill="#CBCBCB"/>
<path d="M59.1713 57.1438C60.4583 58.7384 61.1602 60.7403 61.1602 62.7906C61.1602 67.7608 57.1412 71.7853 52.1999 71.7853C50.3693 71.7853 48.6281 71.2468 47.1347 70.2114C45.2009 72.1097 42.5926 73.1866 39.8811 73.1866C37.1696 73.1866 34.5682 72.1097 32.6413 70.2114C31.1479 71.2468 29.4067 71.7853 27.5761 71.7853C24.0181 71.7853 20.7974 69.6729 19.3659 66.4009C18.8704 65.2619 18.6089 64.0469 18.6089 62.7836C18.6089 62.3004 18.6571 61.8103 18.7259 61.3202C19.1801 58.5382 20.9143 56.1498 23.385 54.8313C23.3781 54.6863 23.3781 54.5344 23.3781 54.3895C23.3781 50.6549 26.3993 47.6244 30.1225 47.6244C30.4528 47.6244 30.7762 47.6452 31.1135 47.7004C32.7789 44.38 36.1648 42.2607 39.888 42.2607C41.2644 42.2607 42.6064 42.5369 43.8589 43.1029C45.9579 44.0279 47.644 45.6502 48.6694 47.7004C48.9929 47.6452 49.3232 47.6244 49.6467 47.6244C53.3698 47.6244 56.3979 50.6549 56.3979 54.3895C56.3979 54.5344 56.391 54.6863 56.3773 54.8313C57.4508 55.4042 58.4006 56.1912 59.1645 57.1369L59.1713 57.1438ZM59.9765 62.7906C59.9765 60.9957 59.3847 59.2976 58.2492 57.8963C57.5128 56.9781 56.5562 56.2257 55.5033 55.7287C55.2624 55.6182 55.1316 55.3697 55.1592 55.1143C55.1936 54.8658 55.2142 54.6242 55.2142 54.3895C55.2142 51.3107 52.7092 48.8118 49.6467 48.8118C49.2475 48.8118 48.8415 48.8463 48.4423 48.9429C48.1739 48.9982 47.8986 48.8601 47.7748 48.5978C46.9076 46.6235 45.3385 45.0565 43.3703 44.1867C42.2692 43.6966 41.0855 43.4481 39.8811 43.4481C36.4745 43.4481 33.3708 45.4707 31.9806 48.5978C31.8705 48.8601 31.5952 48.9982 31.313 48.9429C30.9139 48.8532 30.5078 48.8118 30.1087 48.8118C27.0393 48.8118 24.548 51.3107 24.548 54.3895C24.548 54.6242 24.5687 54.8589 24.5962 55.1143C24.6306 55.3628 24.493 55.6113 24.2659 55.7287C21.9398 56.8194 20.3019 58.9939 19.8958 61.5204C19.8201 61.9484 19.7857 62.3695 19.7857 62.7906C19.7857 63.8812 20.0059 64.9374 20.4395 65.9315C21.6851 68.7686 24.4861 70.6049 27.5692 70.6049C29.3035 70.6049 30.9621 70.0388 32.3385 68.9619C32.4417 68.8791 32.5725 68.8446 32.6963 68.8446C32.8546 68.8446 33.0129 68.9067 33.1299 69.031C34.8641 70.9224 37.321 72.0062 39.8742 72.0062C42.4275 72.0062 44.8912 70.9224 46.6186 69.031C46.8319 68.8101 47.176 68.7824 47.4238 68.9688C48.8002 70.0457 50.445 70.6118 52.193 70.6118C56.4805 70.6118 59.9697 67.1119 59.9697 62.7975L59.9765 62.7906Z" fill="#CBCBCB"/>
<path d="M58.249 57.8897C59.3846 59.291 59.9764 60.9822 59.9764 62.784C59.9764 67.0915 56.4873 70.5983 52.1998 70.5983C50.4518 70.5983 48.807 70.0322 47.4306 68.9553C47.1828 68.7689 46.8387 68.7966 46.6254 69.0175C44.898 70.9089 42.4411 71.9927 39.881 71.9927C37.3209 71.9927 34.8709 70.9089 33.1367 69.0175C33.0197 68.9001 32.8614 68.8311 32.7031 68.8311C32.5723 68.8311 32.4416 68.8656 32.3452 68.9484C30.9688 70.0253 29.3172 70.5914 27.576 70.5914C24.4929 70.5914 21.6919 68.7551 20.4463 65.918C20.0127 64.9239 19.7925 63.8677 19.7925 62.7771C19.7925 62.3629 19.8269 61.9349 19.9026 61.5069C20.3086 58.9803 21.9465 56.8059 24.2727 55.7152C24.5066 55.6047 24.6443 55.3562 24.603 55.1008C24.5755 54.8523 24.5548 54.6107 24.5548 54.376C24.5548 51.2972 27.0461 48.7983 30.1155 48.7983C30.5146 48.7983 30.9207 48.8328 31.3198 48.9294C31.5951 48.9847 31.8773 48.8466 31.9874 48.5843C33.3706 45.4503 36.4744 43.4346 39.8879 43.4346C41.0991 43.4346 42.2828 43.6831 43.3771 44.1732C45.3453 45.043 46.9144 46.61 47.7815 48.5843C47.8985 48.8466 48.1807 48.9847 48.4491 48.9294C48.8483 48.8397 49.2543 48.7983 49.6534 48.7983C52.7228 48.7983 55.221 51.2972 55.221 54.376C55.221 54.6107 55.2003 54.8454 55.1659 55.1008C55.1384 55.3493 55.2691 55.5978 55.51 55.7152C56.563 56.2122 57.5127 56.9646 58.2559 57.8828L58.249 57.8897Z" fill="white"/>
<path d="M42.2141 62.9354C42.455 63.0389 42.572 63.3151 42.4757 63.5567C42.3999 63.7431 42.2279 63.8535 42.0421 63.8535C41.9801 63.8535 41.9251 63.8466 41.8632 63.819C41.3677 63.6119 40.645 63.5015 39.888 63.5015C39.131 63.5015 38.4084 63.6119 37.9129 63.819C37.672 63.9225 37.3967 63.7983 37.2935 63.5567C37.204 63.3151 37.3142 63.0389 37.5619 62.9354C38.1744 62.6869 39.0002 62.5488 39.888 62.5488C40.7758 62.5488 41.5948 62.6869 42.2141 62.9354Z" fill="#CBCBCB"/>
<path d="M39.8812 39.8238C39.6747 39.8238 39.4889 39.7133 39.3788 39.5339L36.7981 35.109H27.5555C25.312 35.109 23.4883 33.2796 23.4883 31.0223V14.5446C23.4883 12.2942 25.312 10.458 27.5555 10.458H52.1931C54.4366 10.458 56.2672 12.2873 56.2672 14.5446V31.0223C56.2672 33.2727 54.4435 35.109 52.1931 35.109H42.9093C42.5652 35.7648 41.8426 37.0142 40.3767 39.5339C40.2735 39.7133 40.0808 39.8238 39.8743 39.8238H39.8812ZM37.6583 34.2806L39.8812 38.0911C40.6657 36.745 42.0972 34.2944 42.1247 34.2392C42.2279 34.0597 42.4206 33.9492 42.6271 33.9492H52.2C53.8103 33.9492 55.111 32.6377 55.111 31.0292V14.5515C55.111 12.9431 53.8035 11.6315 52.2 11.6315H27.5624C25.9589 11.6315 24.6513 12.9431 24.6513 14.5515V31.0292C24.6513 32.6377 25.9589 33.9492 27.5624 33.9492H37.1215C37.1215 33.9492 37.1422 33.9492 37.1559 33.9492C37.3761 33.9562 37.5688 34.0873 37.6583 34.2806Z" fill="#CBCBCB"/>
<path d="M42.4618 60.0502C42.2209 59.9466 42.1039 59.6705 42.2002 59.4289C42.276 59.2425 42.448 59.1321 42.6338 59.1321C42.6957 59.1321 42.7508 59.139 42.8127 59.1666C43.3083 59.3737 44.7191 59.4841 45.4761 59.4841C46.2331 59.4841 47.6439 59.3737 48.1394 59.1666C48.3803 59.0631 48.6556 59.1873 48.7588 59.4289C48.8483 59.6705 48.7381 59.9466 48.4904 60.0502C47.8779 60.2987 46.3639 60.4368 45.4761 60.4368C44.5883 60.4368 43.0811 60.2987 42.4618 60.0502Z" fill="#CBCBCB"/>
<path d="M31.2718 60.0502C31.031 59.9466 30.914 59.6705 31.0103 59.4289C31.086 59.2425 31.2581 59.1321 31.4439 59.1321C31.5058 59.1321 31.5609 59.139 31.6228 59.1666C32.1183 59.3737 33.5291 59.4841 34.2861 59.4841C35.0432 59.4841 36.454 59.3737 36.9495 59.1666C37.1903 59.0631 37.4656 59.1873 37.5688 59.4289C37.6583 59.6705 37.5482 59.9466 37.3004 60.0502C36.688 60.2987 35.1739 60.4368 34.2861 60.4368C33.3984 60.4368 31.8912 60.2987 31.2718 60.0502Z" fill="#CBCBCB"/>
<path d="M33.8734 22.3936C34.658 22.3936 35.1466 22.9044 35.1466 23.7259C35.1466 24.3886 34.6029 24.8787 33.8734 24.8787C33.1439 24.8787 32.5796 24.3816 32.5796 23.7259C32.5796 22.9113 33.1026 22.3936 33.8734 22.3936Z" fill="#CBCBCB"/>
<path d="M39.8954 22.3936C40.6799 22.3936 41.1686 22.9044 41.1686 23.7259C41.1686 24.3886 40.6249 24.8787 39.8954 24.8787C39.1659 24.8787 38.6016 24.3816 38.6016 23.7259C38.6016 22.9113 39.1246 22.3936 39.8954 22.3936Z" fill="#CBCBCB"/>
<path d="M45.91 22.3936C46.6946 22.3936 47.1832 22.9044 47.1832 23.7259C47.1832 24.3886 46.6395 24.8787 45.91 24.8787C45.1805 24.8787 44.6162 24.3816 44.6162 23.7259C44.6162 22.9113 45.1392 22.3936 45.91 22.3936Z" fill="#CBCBCB"/>
</svg>
