<svg width="82" height="82" viewBox="0 0 82 82" fill="none" xmlns="http://www.w3.org/2000/svg">
<path d="M41 81C63.0914 81 81 63.0914 81 41C81 18.9086 63.0914 1 41 1C18.9086 1 1 18.9086 1 41C1 63.0914 18.9086 81 41 81Z" fill="white" stroke="#CBCBCB" stroke-width="0.988636" stroke-miterlimit="10"/>
<path d="M61.9509 56.1474C61.9509 56.2523 61.9509 56.3642 61.944 56.4551C61.944 56.539 61.9439 56.6229 61.937 56.6999C61.853 59.2313 61.1048 61.6649 59.7691 63.7208L59.5733 64.0565C55.6782 70.6579 48.7342 74.6089 41.0069 74.6089C33.2796 74.6089 26.3356 70.6579 22.4405 64.0565L22.2446 63.7208C20.923 61.6649 20.1677 59.2313 20.0768 56.6999C20.0768 56.6229 20.0698 56.539 20.0698 56.4621V56.1404C20.0698 49.0565 25.1887 43.2803 31.4754 43.2803C34.937 43.2803 38.1747 45.0285 40.3635 48.0705C40.5104 48.2803 40.7481 48.3992 41.0139 48.3992C41.2796 48.3992 41.5174 48.2803 41.6712 48.0705C42.7621 46.553 44.1118 45.3572 45.6293 44.532C47.1398 43.7278 48.8111 43.2803 50.5453 43.2803C56.8321 43.2803 61.9579 49.0565 61.9579 56.1404L61.9509 56.1474ZM60.7412 56.4411C60.7412 56.3502 60.7481 56.2523 60.7481 56.1474C60.7481 49.7138 56.1677 44.4901 50.5314 44.4901C47.4614 44.4901 44.5803 46.0495 42.6293 48.7698C42.2516 49.2943 41.6432 49.602 40.9929 49.602C40.3426 49.6089 39.7342 49.2943 39.3565 48.7698C37.4125 46.0495 34.5314 44.4901 31.4544 44.4901C25.8321 44.4901 21.2516 49.7208 21.2516 56.1474V56.4411C21.2516 56.504 21.2586 56.581 21.2586 56.6579C21.3426 58.9796 22.0279 61.2034 23.2377 63.0705C23.2446 63.0915 23.2586 63.0985 23.2656 63.1194C23.3216 63.2313 23.3845 63.3432 23.4544 63.4481C27.1328 69.6929 33.6852 73.4201 40.9929 73.4201C44.6432 73.4201 48.1118 72.4901 51.1188 70.7698C54.1258 69.0635 56.6852 66.574 58.5244 63.4551L58.7202 63.1194C58.7202 63.1194 58.7412 63.0915 58.7481 63.0705C59.9579 61.2034 60.6363 58.9866 60.7272 56.6579V56.4411H60.7412Z" fill="#CBCBCB"/>
<path d="M50.1752 62.4141C51.0004 62.4141 51.6787 63.0924 51.6787 63.9246C51.6787 64.7567 51.0004 65.428 50.1752 65.428H48.0074C47.1822 65.428 46.5039 64.7497 46.5039 63.9246C46.5039 63.0994 47.1822 62.4141 48.0074 62.4141H50.1752Z" fill="#E0E0E0"/>
<path d="M45.0487 62.9175C45.1956 63.1343 45.1396 63.435 44.9298 63.5818C43.8879 64.2881 42.4963 64.6727 40.9997 64.6727C39.5032 64.6727 38.1116 64.2881 37.0767 63.5818C36.8529 63.435 36.797 63.1343 36.9438 62.9175C37.0907 62.6937 37.3914 62.6378 37.6081 62.7846C38.4683 63.379 39.713 63.7147 40.9997 63.7147C42.2865 63.7147 43.5242 63.379 44.3914 62.7846C44.6081 62.6378 44.9088 62.6937 45.0557 62.9175H45.0487Z" fill="#CBCBCB"/>
<path d="M33.9858 62.4141C34.811 62.4141 35.4893 63.0924 35.4893 63.9246C35.4893 64.7567 34.811 65.428 33.9858 65.428H31.818C30.9928 65.428 30.3145 64.7497 30.3145 63.9246C30.3145 63.0994 30.9928 62.4141 31.818 62.4141H33.9858Z" fill="#E0E0E0"/>
<path d="M32.5312 59.4277C34.2026 60.5117 36.1746 60.5117 37.8459 59.4277" stroke="#CBCBCB" stroke-width="0.889773" stroke-miterlimit="10" stroke-linecap="round"/>
<path d="M44.1538 59.4277C45.8251 60.5117 47.7972 60.5117 49.4685 59.4277" stroke="#CBCBCB" stroke-width="0.889773" stroke-miterlimit="10" stroke-linecap="round"/>
<path d="M38.2097 35.4541L40.9999 40.2233L43.7902 35.4541H53.5174C55.4755 35.4541 57.0629 33.8667 57.0629 31.9087V15.2164C57.0629 13.2583 55.4755 11.6709 53.5174 11.6709H28.4825C26.5244 11.6709 24.937 13.2583 24.937 15.2164V31.9087C24.937 33.8667 26.5244 35.4541 28.4825 35.4541H38.2097Z" stroke="#CBCBCB" stroke-width="1.10727" stroke-linecap="round" stroke-linejoin="round"/>
<path d="M41.0002 21.1474C40.5247 20.1404 39.5876 19.4551 38.5107 19.4551C36.9513 19.4551 35.6855 20.8886 35.6855 22.6579C35.6855 22.6858 35.6855 22.7068 35.6855 22.7348C35.6855 22.7558 35.6855 22.7768 35.6855 22.7907C35.7065 23.4481 35.9093 24.0495 36.231 24.546C37.3499 26.532 39.8814 28.0635 40.7205 28.532C40.8953 28.6299 41.0981 28.6299 41.273 28.532C42.1121 28.0635 44.6436 26.532 45.7625 24.546C46.0842 24.0495 46.28 23.4481 46.3079 22.7907C46.3079 22.7698 46.3079 22.7488 46.3079 22.7348C46.3079 22.7068 46.3079 22.6858 46.3079 22.6579C46.3079 20.8886 45.0422 19.4551 43.4828 19.4551C42.4058 19.4551 41.4688 20.1404 40.9932 21.1474H41.0002Z" stroke="#CBCBCB" stroke-width="1.10727" stroke-linecap="round" stroke-linejoin="round"/>
</svg>
