<svg width="80" height="80" viewBox="0 0 80 80" fill="none" xmlns="http://www.w3.org/2000/svg">
<path d="M39.8811 79.489C61.6218 79.489 79.2461 61.8107 79.2461 40.0033C79.2461 18.1959 61.6218 0.517578 39.8811 0.517578C18.1404 0.517578 0.516113 18.1959 0.516113 40.0033C0.516113 61.8107 18.1404 79.489 39.8811 79.489Z" fill="#F5F5FC"/>
<path d="M39.8811 80C17.8863 80 0 62.0588 0 40.0035C0 17.9481 17.8863 0 39.8811 0C61.876 0 79.7623 17.9412 79.7623 40.0035C79.7623 62.0658 61.876 80.0069 39.8811 80.0069V80ZM39.8811 1.03546C18.4575 1.03546 1.0323 18.5141 1.0323 40.0035C1.0323 61.4928 18.4575 78.9714 39.8811 78.9714C61.3048 78.9714 78.73 61.4928 78.73 40.0035C78.73 18.5141 61.2979 1.03546 39.8811 1.03546Z" fill="#8C9AED"/>
<path d="M37.1353 34.5292L39.8812 39.2371L42.6271 34.5292H52.1999C54.1269 34.5292 55.6891 32.9622 55.6891 31.0293V14.5516C55.6891 12.6188 54.1269 11.0518 52.1999 11.0518H27.5624C25.6355 11.0518 24.0732 12.6188 24.0732 14.5516V31.0293C24.0732 32.9622 25.6355 34.5292 27.5624 34.5292H37.1353Z" fill="white"/>
<path d="M39.8812 40.1003L36.8875 34.9644H27.5624C25.4014 34.9644 23.6396 33.1972 23.6396 31.0296V14.552C23.6396 12.3844 25.4014 10.6172 27.5624 10.6172H52.1999C54.3609 10.6172 56.1227 12.3844 56.1227 14.552V31.0296C56.1227 33.1972 54.3609 34.9644 52.1999 34.9644H42.8748L39.8812 40.1003ZM37.5069 34.3155L39.8812 38.3883L42.3793 34.1015H52.1999C53.886 34.1015 55.2624 32.7209 55.2624 31.0296V14.552C55.2624 12.8607 53.886 11.4801 52.1999 11.4801H27.5624C25.8763 11.4801 24.4999 12.8607 24.4999 14.552V31.0296C24.4999 32.7209 25.8763 34.1015 27.5624 34.1015H37.1352V34.5295L37.5069 34.3155Z" fill="#D6D7D8"/>
<path d="M38.3808 18.818C38.4015 18.0172 39.0621 17.4512 40.005 17.4512C40.9478 17.4512 41.6016 18.0172 41.6291 18.818C41.6773 20.4816 41.5465 22.0072 41.3676 23.5466C41.2988 24.2783 40.8652 24.7685 40.005 24.7685C39.1447 24.7685 38.718 24.2783 38.6286 23.5466C38.4496 22.0003 38.3189 20.4816 38.3808 18.818ZM40.005 25.3207C40.9753 25.3207 41.5947 25.9558 41.5947 26.9636C41.5947 27.7782 40.9272 28.3857 40.005 28.3857C39.0828 28.3857 38.4152 27.7782 38.4152 26.9636C38.4152 25.9558 39.0621 25.3207 40.005 25.3207Z" fill="#8C9AED"/>
<path d="M59.1645 57.1438C60.4515 58.7384 61.1534 60.7403 61.1534 62.7906C61.1534 67.7608 57.1343 71.7853 52.1931 71.7853C50.3624 71.7853 48.6213 71.2468 47.1279 70.2114C45.1941 72.1097 42.5858 73.1866 39.8743 73.1866C37.1628 73.1866 34.5614 72.1097 32.6344 70.2114C31.141 71.2468 29.3999 71.7853 27.5693 71.7853C24.0113 71.7853 20.7905 69.6729 19.3591 66.4009C18.8636 65.2619 18.6021 64.0469 18.6021 62.7836C18.6021 62.3004 18.6502 61.8103 18.719 61.3202C19.1733 58.5382 20.9075 56.1498 23.3782 54.8313C23.3713 54.6863 23.3713 54.5344 23.3713 54.3895C23.3713 50.6549 26.3925 47.6244 30.1156 47.6244C30.446 47.6244 30.7694 47.6452 31.1066 47.7004C32.7721 44.38 36.158 42.2607 39.8812 42.2607C41.2576 42.2607 42.5996 42.5369 43.8521 43.1029C45.9511 44.0279 47.6372 45.6502 48.6626 47.7004C48.986 47.6452 49.3164 47.6244 49.6398 47.6244C53.363 47.6244 56.3911 50.6549 56.3911 54.3895C56.3911 54.5344 56.3842 54.6863 56.3704 54.8313C57.444 55.4042 58.3937 56.1912 59.1576 57.1369L59.1645 57.1438ZM59.9697 62.7906C59.9697 60.9957 59.3779 59.2976 58.2423 57.8963C57.506 56.9781 56.5494 56.2257 55.4964 55.7287C55.2555 55.6182 55.1248 55.3697 55.1523 55.1143C55.1867 54.8658 55.2074 54.6242 55.2074 54.3895C55.2074 51.3107 52.7023 48.8118 49.6398 48.8118C49.2407 48.8118 48.8346 48.8463 48.4355 48.9429C48.1671 48.9982 47.8918 48.8601 47.7679 48.5978C46.9008 46.6235 45.3317 45.0565 43.3635 44.1867C42.2623 43.6966 41.0786 43.4481 39.8743 43.4481C36.4677 43.4481 33.3639 45.4707 31.9738 48.5978C31.8636 48.8601 31.5884 48.9982 31.3062 48.9429C30.9071 48.8532 30.501 48.8118 30.1019 48.8118C27.0325 48.8118 24.5412 51.3107 24.5412 54.3895C24.5412 54.6242 24.5619 54.8589 24.5894 55.1143C24.6238 55.3628 24.4862 55.6113 24.259 55.7287C21.9329 56.8194 20.295 58.9939 19.889 61.5204C19.8133 61.9484 19.7789 62.3695 19.7789 62.7906C19.7789 63.8812 19.9991 64.9374 20.4327 65.9315C21.6783 68.7686 24.4793 70.6049 27.5624 70.6049C29.2967 70.6049 30.9552 70.0388 32.3316 68.9619C32.4349 68.8791 32.5656 68.8446 32.6895 68.8446C32.8478 68.8446 33.0061 68.9067 33.1231 69.031C34.8573 70.9224 37.3142 72.0062 39.8674 72.0062C42.4206 72.0062 44.8844 70.9224 46.6118 69.031C46.8251 68.8101 47.1692 68.7824 47.417 68.9688C48.7934 70.0457 50.4382 70.6118 52.1862 70.6118C56.4737 70.6118 59.9628 67.1119 59.9628 62.7975L59.9697 62.7906Z" fill="#8C9AED"/>
<path d="M58.2422 57.8897C59.3777 59.291 59.9696 60.9822 59.9696 62.784C59.9696 67.0915 56.4804 70.5983 52.1929 70.5983C50.4449 70.5983 48.8001 70.0322 47.4237 68.9553C47.176 68.7689 46.8319 68.7966 46.6185 69.0175C44.8912 70.9089 42.4343 71.9927 39.8742 71.9927C37.3141 71.9927 34.8641 70.9089 33.1298 69.0175C33.0128 68.9001 32.8545 68.8311 32.6963 68.8311C32.5655 68.8311 32.4347 68.8656 32.3384 68.9484C30.962 70.0253 29.3103 70.5914 27.5692 70.5914C24.486 70.5914 21.6851 68.7551 20.4394 65.918C20.0059 64.9239 19.7856 63.8677 19.7856 62.7771C19.7856 62.3629 19.8201 61.9349 19.8958 61.5069C20.3018 58.9803 21.9397 56.8059 24.2658 55.7152C24.4998 55.6047 24.6375 55.3562 24.5962 55.1008C24.5686 54.8523 24.548 54.6107 24.548 54.376C24.548 51.2972 27.0393 48.7983 30.1086 48.7983C30.5078 48.7983 30.9138 48.8328 31.313 48.9294C31.5883 48.9847 31.8704 48.8466 31.9805 48.5843C33.3638 45.4503 36.4676 43.4346 39.8811 43.4346C41.0923 43.4346 42.276 43.6831 43.3702 44.1732C45.3385 45.043 46.9076 46.61 47.7747 48.5843C47.8917 48.8466 48.1739 48.9847 48.4423 48.9294C48.8414 48.8397 49.2475 48.7983 49.6466 48.7983C52.716 48.7983 55.2141 51.2972 55.2141 54.376C55.2141 54.6107 55.1935 54.8454 55.1591 55.1008C55.1316 55.3493 55.2623 55.5978 55.5032 55.7152C56.5561 56.2122 57.5058 56.9646 58.2491 57.8828L58.2422 57.8897ZM49.1442 59.4567C49.1442 59.1943 48.9309 58.9872 48.6763 58.9872H42.0351C41.7667 58.9872 41.5672 59.2012 41.5672 59.4567C41.5672 59.7121 41.7736 59.9399 42.0351 59.9399H42.5513C42.6339 60.8925 43.6042 61.6518 44.7879 61.6518C45.9716 61.6518 46.9489 60.8925 47.0315 59.9399H48.6763C48.9378 59.9399 49.1442 59.7259 49.1442 59.4567ZM38.2087 59.4567C38.2087 59.1943 37.9954 58.9872 37.7408 58.9872H31.0996C30.8312 58.9872 30.6179 59.2012 30.6179 59.4567C30.6179 59.7121 30.8312 59.9399 31.0996 59.9399H31.6158C31.6984 60.8925 32.6687 61.6518 33.8524 61.6518C35.0361 61.6518 36.0134 60.8925 36.096 59.9399H37.7408C38.0023 59.9399 38.2087 59.7259 38.2087 59.4567Z" fill="white"/>
<path d="M48.6765 58.9873C48.938 58.9873 49.1445 59.2013 49.1445 59.4567C49.1445 59.7121 48.9311 59.9399 48.6765 59.9399H47.0317C46.9491 60.8926 45.9787 61.6519 44.7882 61.6519C43.5976 61.6519 42.6341 60.8926 42.5515 59.9399H42.0354C41.767 59.9399 41.5674 59.7259 41.5674 59.4567C41.5674 59.1875 41.7738 58.9873 42.0354 58.9873H48.6765ZM44.4647 59.9399L43.3773 59.933C43.3773 60.2368 43.6182 60.4784 43.921 60.4784C44.2238 60.4784 44.4647 60.2368 44.4647 59.9399Z" fill="#8C9AED"/>
<path d="M44.4575 59.9326C44.4575 60.2364 44.2097 60.478 43.9138 60.478C43.6179 60.478 43.3701 60.2364 43.3701 59.9395L44.4575 59.9326Z" fill="white"/>
<path d="M42.0423 63.4604C42.2831 63.3568 42.4001 63.0807 42.3038 62.8391C42.2281 62.6527 42.056 62.5422 41.8702 62.5422C41.8083 62.5422 41.7532 62.5491 41.6913 62.5768C41.1958 62.7838 40.4732 62.8943 39.7161 62.8943C38.9591 62.8943 38.2365 62.7838 37.741 62.5768C37.5001 62.4732 37.2249 62.5975 37.1216 62.8391C37.0322 63.0807 37.1423 63.3568 37.39 63.4604C38.0025 63.7089 38.8284 63.8469 39.7161 63.8469C40.6039 63.8469 41.4229 63.7089 42.0423 63.4604Z" fill="#8C9AED"/>
<path d="M37.7342 58.9873C37.9957 58.9873 38.2022 59.2013 38.2022 59.4567C38.2022 59.7121 37.9888 59.9399 37.7342 59.9399H36.0894C36.0068 60.8926 35.0365 61.6519 33.8459 61.6519C32.6553 61.6519 31.6918 60.8926 31.6092 59.9399H31.0931C30.8247 59.9399 30.6113 59.7259 30.6113 59.4567C30.6113 59.1875 30.8247 58.9873 31.0931 58.9873H37.7342ZM33.5224 59.9399L32.4351 59.933C32.4351 60.2368 32.6759 60.4784 32.9787 60.4784C33.2815 60.4784 33.5224 60.2368 33.5224 59.9399Z" fill="#8C9AED"/>
<path d="M33.5224 59.9326C33.5224 60.2364 33.2747 60.478 32.9787 60.478C32.6828 60.478 32.4351 60.2364 32.4351 59.9395L33.5224 59.9326Z" fill="white"/>
</svg>
