<svg width="103" height="50" viewBox="0 0 103 50" fill="none" xmlns="http://www.w3.org/2000/svg">
<g clip-path="url(#clip0_43_68)">
<path d="M99.2255 24.0708C97.9864 22.5373 96.4374 21.2672 94.7026 20.3378C94.7026 20.1055 94.7336 19.8576 94.7336 19.6253C94.7336 13.5844 89.8234 8.68973 83.7825 8.68973C83.2559 8.68973 82.7137 8.72071 82.1871 8.81364C80.5297 5.4989 77.7881 2.88118 74.3804 1.3787C72.3358 0.46482 70.1673 0.015625 67.9368 0.015625C64.4207 0.015625 61.1059 1.20831 58.3953 3.23743C63.4758 6.89295 66.8525 13.2746 66.8525 20.5392C66.8525 20.7096 66.8525 20.8799 66.8525 21.0348C66.8525 21.1742 66.8525 21.2982 66.8525 21.4221C66.7131 25.4648 65.5204 29.3527 63.3984 32.6364C63.2899 32.8223 63.1815 32.9927 63.0886 33.1786C59.1233 39.901 53.1753 44.8886 46.1896 47.6303C46.7937 47.7077 47.3978 47.7697 48.0018 47.7697C50.9758 47.7697 53.7794 46.9022 56.2113 45.2294C59.3401 48.2963 63.5688 50.0466 67.9523 50.0466C72.3358 50.0466 76.5799 48.3118 79.7088 45.2294C82.1251 46.9022 84.9597 47.7697 87.9182 47.7697C95.9417 47.7697 102.447 41.2486 102.447 33.225C102.447 29.9103 101.301 26.673 99.2255 24.1017V24.0708Z" fill="#99D7F3"/>
<path d="M34.6654 39.0335C33.86 37.1902 33.4418 35.223 33.4418 33.1939C33.4418 32.4195 33.5192 31.614 33.6431 30.824C34.3711 26.3321 37.1902 22.4597 41.202 20.3377C41.202 20.1053 41.202 19.8575 41.202 19.6252C41.202 13.5843 46.0967 8.68959 52.1375 8.68959C52.6797 8.68959 53.2063 8.72057 53.7485 8.81351C54.8792 6.56753 56.5056 4.69331 58.4418 3.2373C55.6227 1.20818 52.277 0.0154895 48.6834 0.0154895C45.9108 0.0154895 43.2466 0.712515 40.8302 2.01363C38.3984 3.33024 36.2454 5.23544 34.5105 7.66729C34.2782 7.99256 33.8755 8.19393 33.4572 8.19393C33.039 8.19393 32.6673 7.99256 32.4195 7.66729C28.9033 2.7881 23.7299 0 18.2001 0C8.16295 0 0 9.21623 0 20.5235V21.0347C0 21.1586 0 21.2825 0 21.4064C0.154895 25.4492 1.34758 29.3371 3.45415 32.6208C3.56258 32.8067 3.671 32.9771 3.76394 33.1629C9.97522 43.6958 21.0657 50 33.3953 50C37.8563 50 42.1623 49.1636 46.1276 47.5991C41.0936 46.9641 36.6945 43.7577 34.619 39.0335H34.6654Z" fill="#F8B7D0"/>
<path d="M63.0576 33.1628C63.1661 32.9769 63.2745 32.8066 63.3674 32.6207C65.4895 29.3369 66.6977 25.4646 66.8216 21.4063C66.8216 21.2824 66.8216 21.1585 66.8216 21.0191C66.8216 20.8642 66.8216 20.6938 66.8216 20.5234C66.8216 13.2589 63.4294 6.8617 58.3643 3.22168C56.4281 4.67769 54.7863 6.55192 53.671 8.79789C53.1289 8.70495 52.6022 8.67397 52.0601 8.67397C46.0192 8.67397 41.1245 13.5686 41.1245 19.6095C41.1245 19.8419 41.1245 20.0897 41.1245 20.3221C37.1283 22.4441 34.3092 26.3165 33.5657 30.8084C33.4418 31.5984 33.3643 32.4038 33.3643 33.1783C33.3643 35.2229 33.7825 37.1746 34.588 39.0178C36.6636 43.7421 41.0626 46.9484 46.0967 47.5835C53.0824 44.8419 59.0304 39.8543 62.9957 33.1318L63.0576 33.1628Z" fill="white"/>
</g>
<defs>
<clipPath id="clip0_43_68">
<rect width="102.447" height="50" fill="white"/>
</clipPath>
</defs>
</svg>
